<svg xmlns="http://www.w3.org/2000/svg" width="55.42" height="55.42" viewBox="0 0 55.42 55.42">
  <g id="Group_43153" data-name="Group 43153" transform="translate(0 0)">
    <path id="Path_53230" data-name="Path 53230" d="M0,11.365a1.624,1.624,0,0,0,.9,1.452l5.6,2.8v4.6L.9,23.01A1.624,1.624,0,0,0,0,24.463v6.495A1.624,1.624,0,0,0,.9,32.41l5.6,2.8V39.7l-5.6,2.8A1.624,1.624,0,0,0,0,43.946v6.495a1.624,1.624,0,0,0,.878,1.443l6.495,3.356a1.627,1.627,0,0,0,1.491,0l6.495-3.356a1.624,1.624,0,0,0,.878-1.443V43.946a1.624,1.624,0,0,0-.9-1.452l-5.6-2.8V35.208l5.6-2.8a1.624,1.624,0,0,0,.9-1.452V24.463a1.624,1.624,0,0,0-.9-1.452l-5.6-2.8v-4.6l5.6-2.8a1.624,1.624,0,0,0,.9-1.452V4.871a1.624,1.624,0,0,0-.9-1.452L8.844.171a1.624,1.624,0,0,0-1.452,0L.9,3.418A1.624,1.624,0,0,0,0,4.871ZM12.989,49.452,8.118,51.969,3.247,49.452v-4.5l4.871-2.435,4.871,2.435Zm0-19.5L8.118,32.389,3.247,29.954V25.466l4.871-2.435,4.871,2.435ZM3.247,5.874,8.118,3.439l4.871,2.435v4.488L8.118,12.8,3.247,10.362ZM53.8,3.247H21.107a1.624,1.624,0,1,0,0,3.247H53.8a1.624,1.624,0,0,0,0-3.247ZM21.107,12.989H37.452a1.624,1.624,0,0,0,0-3.247H21.107a1.624,1.624,0,1,0,0,3.247Zm0,19.592H37.452a1.624,1.624,0,0,0,0-3.247H21.107a1.624,1.624,0,1,0,0,3.247ZM37.452,52.064a1.624,1.624,0,0,0,0-3.247H21.107a1.624,1.624,0,1,0,0,3.247ZM53.8,22.839H21.107a1.624,1.624,0,1,0,0,3.247H53.8a1.624,1.624,0,0,0,0-3.247Zm0,19.484H21.107a1.624,1.624,0,1,0,0,3.247H53.8a1.624,1.624,0,0,0,0-3.247Zm0,0" fill="#78c972"/>
    <path id="Path_53231" data-name="Path 53231" d="M63.22,61.624A1.624,1.624,0,1,1,61.6,60,1.624,1.624,0,0,1,63.22,61.624Zm0,19.592A1.624,1.624,0,1,1,61.6,79.592,1.624,1.624,0,0,1,63.22,81.215Zm0,19.484A1.624,1.624,0,1,1,61.6,99.075,1.624,1.624,0,0,1,63.22,100.7Zm0,0" transform="translate(-53.481 -53.506)" fill="#78c972"/>
  </g>
</svg>
