<svg xmlns="http://www.w3.org/2000/svg" width="17.852" height="23.802" viewBox="0 0 17.852 23.802">
  <g id="Group_43162" data-name="Group 43162" transform="translate(-64)">
    <path id="Path_53241" data-name="Path 53241" d="M168.182,1.488h-1.616a2.232,2.232,0,0,0-4.209,0h-1.614a.744.744,0,0,0-.744.744V5.207a.744.744,0,0,0,.744.744h7.438a.744.744,0,0,0,.744-.744V2.231A.744.744,0,0,0,168.182,1.488Z" transform="translate(-91.537)" fill="rgba(120,201,114,0.65)"/>
    <path id="Path_53242" data-name="Path 53242" d="M80.364,64H78.876v2.231a2.234,2.234,0,0,1-2.231,2.231H69.207a2.234,2.234,0,0,1-2.231-2.231V64H65.488A1.49,1.49,0,0,0,64,65.488V83.339a1.471,1.471,0,0,0,1.488,1.488H80.364a1.471,1.471,0,0,0,1.488-1.488V65.488A1.471,1.471,0,0,0,80.364,64ZM72.709,77.171l-2.975,2.975a.747.747,0,0,1-1.053,0l-1.488-1.488a.744.744,0,0,1,1.052-1.052l.962.961,2.449-2.449a.744.744,0,0,1,1.053,1.052Zm0-5.951L69.733,74.2a.747.747,0,0,1-1.053,0l-1.488-1.488a.744.744,0,0,1,1.052-1.052l.962.961,2.449-2.449a.744.744,0,0,1,1.053,1.052Zm5.424,7.655H75.157a.744.744,0,0,1,0-1.488h2.975a.744.744,0,1,1,0,1.488Zm0-5.951H75.157a.744.744,0,0,1,0-1.488h2.975a.744.744,0,1,1,0,1.488Z" transform="translate(0 -61.025)" fill="rgba(120,201,114,0.65)"/>
  </g>
</svg>
