<svg xmlns="http://www.w3.org/2000/svg" width="23.885" height="18.98" viewBox="0 0 23.885 18.98">
  <g id="Group_43161" data-name="Group 43161" transform="translate(-31.169 -54.51)">
    <path id="Path_53239" data-name="Path 53239" d="M79.814,73.486c-.038,0-.077,0-.115,0H67.1a1.8,1.8,0,0,1-1.8-1.806A7.477,7.477,0,0,1,72.777,64.2h1.249a6.632,6.632,0,0,1,.664.031,2.072,2.072,0,0,0,1.031,1.733l.055.033c-.013.181-.022.36-.022.541s.007.362.022.543l-.055.031a2.073,2.073,0,0,0-.757,2.828l.951,1.647a2.073,2.073,0,0,0,1.79,1.035,2.051,2.051,0,0,0,1.035-.278l.055-.033a6.931,6.931,0,0,0,.936.543v.064A2.2,2.2,0,0,0,79.814,73.486Zm-2.36-14.923A4.052,4.052,0,1,1,73.4,54.51a4.025,4.025,0,0,1,4.051,4.053Z" transform="translate(-34.131)" fill="rgba(120,201,114,0.65)"/>
    <path id="Path_53240" data-name="Path 53240" d="M127.9,86.961l-1.035-.6a5.386,5.386,0,0,0,0-2.786l1.035-.6a.433.433,0,0,0,.159-.592l-.949-1.645a.433.433,0,0,0-.592-.159l-1.038.6a5.374,5.374,0,0,0-2.411-1.393v-1.2a.433.433,0,0,0-.433-.433h-1.9a.433.433,0,0,0-.433.433v1.2a5.373,5.373,0,0,0-2.411,1.393l-1.038-.6a.433.433,0,0,0-.592.159l-.949,1.645a.433.433,0,0,0,.159.592l1.035.6a5.386,5.386,0,0,0,0,2.786l-1.035.6a.433.433,0,0,0-.159.592l.949,1.645a.433.433,0,0,0,.592.159l1.038-.6a5.374,5.374,0,0,0,2.411,1.393v1.2a.433.433,0,0,0,.433.433h1.9a.433.433,0,0,0,.433-.433v-1.2a5.374,5.374,0,0,0,2.411-1.393l1.038.6a.433.433,0,0,0,.592-.159l.949-1.645A.433.433,0,0,0,127.9,86.961Zm-6.214.2a2.188,2.188,0,1,1,2.188-2.188A2.187,2.187,0,0,1,121.684,87.158Z" transform="translate(-73.061 -18.429)" fill="rgba(120,201,114,0.65)"/>
  </g>
</svg>
