<svg xmlns="http://www.w3.org/2000/svg" width="20" height="20" viewBox="0 0 20 20">
  <g id="Group_43154" data-name="Group 43154" transform="translate(-2 -2)">
    <path id="Path_53232" data-name="Path 53232" d="M16.19,2H7.81C4.17,2,2,4.17,2,7.81v8.38C2,19.83,4.17,22,7.81,22h8.38C19.83,22,22,19.83,22,16.19V7.81C22,4.17,19.83,2,16.19,2ZM9.97,14.9,7.72,17.15a.742.742,0,0,1-.53.22.725.725,0,0,1-.53-.22l-.75-.75a.737.737,0,0,1,0-1.06.754.754,0,0,1,1.06,0l.22.22,1.72-1.72A.75.75,0,1,1,9.97,14.9Zm0-7L7.72,10.15a.742.742,0,0,1-.53.22.725.725,0,0,1-.53-.22L5.91,9.4a.737.737,0,0,1,0-1.06.754.754,0,0,1,1.06,0l.22.22L8.91,6.84A.75.75,0,1,1,9.97,7.9Zm7.59,8.72H12.31a.75.75,0,0,1,0-1.5h5.25a.75.75,0,0,1,0,1.5Zm0-7H12.31a.75.75,0,0,1,0-1.5h5.25a.75.75,0,0,1,0,1.5Z" fill="rgba(165,139,240,0.56)"/>
  </g>
</svg>
