<svg xmlns="http://www.w3.org/2000/svg" width="22.637" height="20" viewBox="0 0 22.637 20">
  <g id="Group_43155" data-name="Group 43155" transform="translate(0 -32.324)">
    <circle id="Ellipse_3770" data-name="Ellipse 3770" cx="4.042" cy="4.042" r="4.042" transform="translate(7.276 32.324)" fill="rgba(165,139,240,0.56)"/>
    <circle id="Ellipse_3771" data-name="Ellipse 3771" cx="2.425" cy="2.425" r="2.425" transform="translate(16.978 35.558)" fill="rgba(165,139,240,0.56)"/>
    <circle id="Ellipse_3772" data-name="Ellipse 3772" cx="2.425" cy="2.425" r="2.425" transform="translate(0.808 35.558)" fill="rgba(165,139,240,0.56)"/>
    <path id="Path_53233" data-name="Path 53233" d="M5.933,241.213A3.932,3.932,0,0,0,3,240.533a3,3,0,0,0-3,2.984v4.829a1.3,1.3,0,0,0,1.3,1.3c3.1,0,2.723.056,2.723-.134C4.023,246.086,3.618,243.576,5.933,241.213Z" transform="translate(0 -198.764)" fill="rgba(165,139,240,0.56)"/>
    <path id="Path_53234" data-name="Path 53234" d="M127.242,239.9a6.564,6.564,0,0,0-5.063,1.2c-2.425,1.943-1.959,4.559-1.959,7.759a1.551,1.551,0,0,0,1.548,1.548c9.333,0,9.7.3,10.258-.925.182-.414.132-.283.132-4.248A5.36,5.36,0,0,0,127.242,239.9Zm7.264-.018a3.929,3.929,0,0,0-2.931.68c2.3,2.346,1.91,4.684,1.91,8.294,0,.191-.31.134,2.677.134a1.345,1.345,0,0,0,1.347-1.341v-4.783A3,3,0,0,0,134.506,239.885Z" transform="translate(-114.871 -198.116)" fill="rgba(165,139,240,0.56)"/>
  </g>
</svg>
