<svg xmlns="http://www.w3.org/2000/svg" width="41.834" height="54.921" viewBox="0 0 41.834 54.921">
  <g id="Group_43151" data-name="Group 43151" transform="translate(-61)">
    <path id="Path_53224" data-name="Path 53224" d="M101.11,4.948a5.851,5.851,0,0,0-4.17-1.73H94.28V2.682A2.685,2.685,0,0,0,91.6,0H72.29a2.685,2.685,0,0,0-2.682,2.682v.536H66.938a5.9,5.9,0,0,0-5.893,5.893L61,49.015a5.9,5.9,0,0,0,5.893,5.906h30a5.9,5.9,0,0,0,5.893-5.893l.044-39.9a5.863,5.863,0,0,0-1.724-4.176ZM72.826,3.218H91.062V6.436H72.826ZM99.575,49.024A2.684,2.684,0,0,1,96.9,51.7h-30a2.68,2.68,0,0,1-2.679-2.685l.044-39.9a2.684,2.684,0,0,1,2.679-2.679h2.671v.536A2.685,2.685,0,0,0,72.29,9.654H91.6A2.685,2.685,0,0,0,94.28,6.972V6.436h2.661A2.68,2.68,0,0,1,99.62,9.121Z" transform="translate(0)" fill="#f08b8b"/>
    <path id="Path_53225" data-name="Path 53225" d="M143.082,146.225h11.432a1.609,1.609,0,1,0,0-3.218H143.082a1.609,1.609,0,1,0,0,3.218Zm0,10.727h11.432a1.609,1.609,0,1,0,0-3.218H143.082a1.609,1.609,0,1,0,0,3.218Zm11.478,7.509H143.082a1.609,1.609,0,1,0,0,3.218H154.56a1.609,1.609,0,1,0,0-3.218Zm-18.326-24.226-3.711,3.711-.875-.875a1.609,1.609,0,1,0-2.275,2.275l2.013,2.013a1.609,1.609,0,0,0,2.275,0l4.848-4.848a1.609,1.609,0,0,0-2.276-2.276Zm0,11.546-3.711,3.711-.875-.875a1.609,1.609,0,1,0-2.275,2.275l2.013,2.013a1.609,1.609,0,0,0,2.275,0l4.848-4.848a1.609,1.609,0,0,0-2.276-2.276Zm0,10.727-3.711,3.711-.875-.875a1.609,1.609,0,1,0-2.275,2.275l2.013,2.013a1.609,1.609,0,0,0,2.275,0l4.848-4.848a1.609,1.609,0,0,0-2.276-2.276Z" transform="translate(-60.618 -124.772)" fill="#f08b8b"/>
  </g>
</svg>
