<svg xmlns="http://www.w3.org/2000/svg" width="16.119" height="10.058" viewBox="0 0 16.119 10.058">
  <g id="Group_43204" data-name="Group 43204" transform="translate(-25.879 -112.411)">
    <path id="Path_53248" data-name="Path 53248" d="M30.343,117.44a3.594,3.594,0,1,1,3.6,3.594A3.6,3.6,0,0,1,30.343,117.44Zm-4.371-.343a.679.679,0,0,0,0,.686,9.114,9.114,0,0,0,15.932,0,.669.669,0,0,0,0-.686,9.114,9.114,0,0,0-15.932,0Zm7.967-2.073a2.416,2.416,0,1,0,2.415,2.416A2.419,2.419,0,0,0,33.939,115.024Z" transform="translate(0)" fill="#fff" fill-rule="evenodd"/>
  </g>
</svg>
