<svg xmlns="http://www.w3.org/2000/svg" xmlns:xlink="http://www.w3.org/1999/xlink" width="58.75" height="58.75" viewBox="0 0 58.75 58.75">
  <defs>
    <clipPath id="clip-path">
      <path id="Path_53248" data-name="Path 53248" d="M0-682.665H58.75v58.75H0Z" transform="translate(0 682.665)" fill="#0c51b0"/>
    </clipPath>
  </defs>
  <g id="Group_43203" data-name="Group 43203" transform="translate(0 -0.002)">
    <g id="Group_43202" data-name="Group 43202" transform="translate(0 0.002)" clip-path="url(#clip-path)">
      <path id="Path_53240" data-name="Path 53240" d="M0-36.558v13.884a3.442,3.442,0,0,0,3.442,3.442H7v6.885l6.885-6.885H24.326a3.442,3.442,0,0,0,3.442-3.442V-36.558A3.442,3.442,0,0,0,24.326-40H3.442A3.442,3.442,0,0,0,0-36.558Z" transform="translate(29.26 41.721)" fill="none" stroke="#0c51b0" stroke-linecap="round" stroke-linejoin="round" stroke-width="2"/>
      <path id="Path_53241" data-name="Path 53241" d="M0-27.418l2.582,2.582L7.745-30" transform="translate(38.842 40.442)" fill="none" stroke="#0c51b0" stroke-linecap="round" stroke-linejoin="round" stroke-width="2"/>
      <path id="Path_53242" data-name="Path 53242" d="M-134.044-220.564h-5.737a6.885,6.885,0,0,1-6.885-6.885v-7a6.885,6.885,0,0,1,6.885-6.885h13.77a6.885,6.885,0,0,1,6.885,6.885" transform="translate(148.387 270.708)" fill="none" stroke="#0c51b0" stroke-linecap="round" stroke-linejoin="round" stroke-width="2"/>
      <path id="Path_53243" data-name="Path 53243" d="M-85.3-74.334h-8.032v-7" transform="translate(101.939 117.593)" fill="none" stroke="#0c51b0" stroke-linecap="round" stroke-linejoin="round" stroke-width="2"/>
      <path id="Path_53244" data-name="Path 53244" d="M-73.115-146.23A6.885,6.885,0,0,1-80-153.115,6.885,6.885,0,0,1-73.115-160a6.885,6.885,0,0,1,6.885,6.885A6.885,6.885,0,0,1-73.115-146.23Z" transform="translate(88.606 172.163)" fill="none" stroke="#0c51b0" stroke-linecap="round" stroke-linejoin="round" stroke-width="2"/>
      <path id="Path_53245" data-name="Path 53245" d="M-170.6-147.449l-2.295,6.885h-13.77l6.885-20.769h13.77l-2.354,7.175" transform="translate(198.715 197.593)" fill="none" stroke="#0c51b0" stroke-linecap="round" stroke-linejoin="round" stroke-width="2"/>
      <path id="Path_53246" data-name="Path 53246" d="M-36.558-73.115H-40V-80h3.442a3.442,3.442,0,0,1,3.442,3.442A3.442,3.442,0,0,1-36.558-73.115Z" transform="translate(65.818 123.259)" fill="none" stroke="#0c51b0" stroke-linecap="round" stroke-linejoin="round" stroke-width="2"/>
      <path id="Path_53247" data-name="Path 53247" d="M-73.115-73.115H-80V-80" transform="translate(85.163 130.144)" fill="none" stroke="#0c51b0" stroke-linecap="round" stroke-linejoin="round" stroke-width="2"/>
    </g>
  </g>
</svg>
