<svg xmlns="http://www.w3.org/2000/svg" width="49.053" height="53.528" viewBox="0 0 49.053 53.528">
  <g id="Role_Acceptor" data-name="Role Acceptor" transform="translate(0)">
    <path id="Path_46126" data-name="Path 46126" d="M45.988,45.1l-5.82-11.813,6.036-2.9-.75-1.552-6.786,3.277a.862.862,0,0,0-.4,1.155l.44.862c-1.242.112-3.38-.112-6.9-1.535a8.26,8.26,0,0,0-8.028.742,12.39,12.39,0,0,0-2.914,2.854,9.071,9.071,0,0,1-2.363-1.069l.207-.354a.864.864,0,0,0-.319-1.181l-6.355-3.63-.862,1.492,5.613,3.208L10.135,46.094,4.522,42.886,3.66,44.378l6.329,3.639a.862.862,0,0,0,1.173-.319l.207-.354,1.647,1.216-.181.267a2.3,2.3,0,0,0-.371,1.724,2.328,2.328,0,0,0,.974,1.518l.405.276a2.337,2.337,0,0,0,1.319.414,1.559,1.559,0,0,0,.2,0,2.233,2.233,0,0,0,.862,1.276l.405.285a2.3,2.3,0,0,0,1.311.405,2.362,2.362,0,0,0,.431,0,2.259,2.259,0,0,0,.483-.155,2.423,2.423,0,0,0,.681.742l.405.276A2.311,2.311,0,0,0,21.25,56h.207a2.25,2.25,0,0,0,.905,1.268l.4.276a2.3,2.3,0,0,0,1.311.405A2.345,2.345,0,0,0,26,56.941l.241-.354,2.328,1.405a2.57,2.57,0,0,0,3.535-.879,2.475,2.475,0,0,0,.319-.862,2.509,2.509,0,0,0,.707.1,2.587,2.587,0,0,0,2.216-1.25,2.656,2.656,0,0,0,.328-.905,2.362,2.362,0,0,0,.7.1,2.587,2.587,0,0,0,2.207-1.25,2.509,2.509,0,0,0,.31-.811l.129.078a2.584,2.584,0,0,0,3.044-4.147,8.519,8.519,0,0,1,2.225-2.423l.491.992a.858.858,0,0,0,1.147.4l6.786-3.277-.75-1.552ZM15.7,50.767a.612.612,0,0,1-.862.155l-.405-.276a.612.612,0,0,1-.155-.862l1.268-1.837a.6.6,0,0,1,.388-.25.612.612,0,0,1,.457.1l.4.276a.543.543,0,0,1,.25.388.578.578,0,0,1-.095.457Zm2.82,1.949a.6.6,0,0,1-.388.25.655.655,0,0,1-.457-.095l-.405-.276a.612.612,0,0,1-.155-.862l1.724-2.526a.578.578,0,0,1,.388-.25h.112a.621.621,0,0,1,.345.1l.4.276a.629.629,0,0,1,.259.388.6.6,0,0,1-.1.457Zm3.311,1.268a.612.612,0,0,1-.862.155l-.405-.276a.629.629,0,0,1-.25-.388.655.655,0,0,1,.095-.457l1.25-1.811a.621.621,0,0,1,.862-.164l.405.285a.612.612,0,0,1,.155.862Zm3.587.862L24.647,55.9a.629.629,0,0,1-.862.155l-.405-.276a.612.612,0,0,1-.155-.862l.767-1.112a.612.612,0,0,1,.862-.155l.4.276a.612.612,0,0,1,.164.862Zm15.745-4.311a.858.858,0,0,1-1.173.293l-5.173-3.1-.862,1.474,2.94,1.724a.855.855,0,0,1-.879,1.466l-3.673-2.216-.862,1.474,2.207,1.328a.914.914,0,0,1,.388.526.862.862,0,0,1-1.268.94l-3.673-2.216-.862,1.474,2.216,1.345a.862.862,0,0,1-.862,1.449l-2.449-1.483a2.44,2.44,0,0,0,.06-1.035,2.328,2.328,0,0,0-.966-1.5l-.431-.224a2.276,2.276,0,0,0-.931-.371,2.44,2.44,0,0,0,0-.5,2.285,2.285,0,0,0-.974-1.5l-.4-.276a2.319,2.319,0,0,0-1.518-.4,2.3,2.3,0,0,0-.94-1.268l-.405-.276a2.311,2.311,0,0,0-1.724-.371,2.638,2.638,0,0,0-.483.147,2.4,2.4,0,0,0-.681-.733l-.405-.276a2.337,2.337,0,0,0-3.242.595l-.086.129-1.724-1.293,5.329-9.226a10.8,10.8,0,0,0,2.233,1.069,11.02,11.02,0,0,0-1.681,4.2,1.949,1.949,0,0,0,1.63,1.828c1.569.414,4.535-.216,6.708-3.449l14.313,8.976a.852.852,0,0,1,.3,1.173Zm-.5-3.449L34.313,43.11a6.9,6.9,0,0,0,2.319-2.19l-1.5-.862a5.544,5.544,0,0,1-2.518,1.975l-5.889-3.69a.866.866,0,0,0-1.207.3c-1.44,2.544-3.449,3.449-4.716,3.449a1.276,1.276,0,0,1-.862-.224,12.934,12.934,0,0,1,4.76-7.131,6.5,6.5,0,0,1,6.415-.586c3.535,1.44,6.338,1.957,8.347,1.569l4.1,8.321a10.425,10.425,0,0,0-2.9,3.044Z" transform="translate(-3.66 -4.835)" fill="#0c51b0"/>
    <path id="Path_46127" data-name="Path 46127" d="M46.49,22.556V7.9a.862.862,0,0,0-.25-.612L40.2,1.25A.862.862,0,0,0,39.592,1H13.724A1.724,1.724,0,0,0,12,2.724V23.418h1.724V2.724H38.73V7.036A1.724,1.724,0,0,0,40.454,8.76h4.311v13.8ZM40.454,7.036V3.94l3.1,3.1Z" transform="translate(-4.809 -1)" fill="#0c51b0"/>
    <path id="Path_46128" data-name="Path 46128" d="M22,15.622A8.622,8.622,0,1,0,30.622,7,8.622,8.622,0,0,0,22,15.622Zm15.52,0a6.9,6.9,0,1,1-6.9-6.9A6.9,6.9,0,0,1,37.52,15.622Z" transform="translate(-6.186 -1.827)" fill="#0c51b0"/>
    <path id="Path_46129" data-name="Path 46129" d="M28.094,16.32,26.87,17.544l2.138,2.13a.862.862,0,0,0,1.216,0l5.493-5.484L34.492,13l-4.872,4.88Z" transform="translate(-6.857 -2.653)" fill="#0c51b0"/>
  </g>
</svg>
